<svg xmlns="http://www.w3.org/2000/svg" viewBox="0 0 76 37.97"><defs><style>.cls-1{fill:#fff;}.cls-2{fill:none;stroke:#3457a7;stroke-linecap:round;stroke-linejoin:round;}</style></defs><g id="Слой_2" data-name="Слой 2"><g id="food_line" data-name="food line"><path class="cls-1" d="M75.48,11.55c-.06-1.85.06-4.21-1.17-5.73A8.17,8.17,0,0,0,72,3.93c-1.6-.83-3.84-.67-5.6-.67-4.17,0-8.3.24-12.45.07s-8.25-.21-12.36-.22c-3.72,0-7.41.81-11.15.8A20.91,20.91,0,0,0,22.28,5.2c-1.79.75-3,2.12-4.41,3.38-1.81,1.62-2.9,3.43-4.77,5-1,.8-1.74,1.49-2.77,2.21-.56.41-3.28,1.76-3.28,1.76-2.63,1.26-5.24,2.68-6,5.72C.46,25.79-.25,29.47,2.37,31c1.35.82,3.84.79,5.39.79h0a5,5,0,0,1,.92-2.94,6.12,6.12,0,0,1,5-2.25c2.26,0,3.2,2.35,3.71,3.27A4.91,4.91,0,0,1,18,31.55c.94-.15,3,0,3.75,0l2.2,0,12.29-.24,1.44-.08c2.94-.13,5.58-.29,8.53-.29,1,0,3.06-.12,4-.08h.11c.57-2.67,3.38-3.92,5.32-4a4.35,4.35,0,0,1,3.62,1.78A4,4,0,0,1,60,31h0c2.91-.24,5.73-.27,8.65-.6,1.78-.2,5.24-.49,5.24-.49,1.17-.33,1.24-1,1.23-2.18,0-1.69.08-3.44.08-5.17C75.19,18.87,75.59,15.22,75.48,11.55ZM27.13,16.74c-.06,1.56-1.33,1.45-2.62,1.6a59.48,59.48,0,0,1-6.26.44c-1.17,0-4.3.34-4-1.47.18-1.17,1.49-2.25,2.27-3.1,1.53-1.67,3.2-3.27,4.89-4.8,1.33-1.22,5.42-2,5.42-.24S27.22,14.25,27.13,16.74Zm19.94,2.45c-.09,1.86-.13,3.66-.28,5.47-1.24-.08-2.47.18-3.76.12-.1-2.06-.49-4.15-.4-6.2-2-.1-4.09.57-6,.33a11.94,11.94,0,0,1,0-2.39c.18-1.08-.13-.88.92-1.13,1.62-.38,3.5.08,5.18-.27.11-2,.13-4.22,0-6.2.33-.1,3.75-.55,3.87-.24.61,1.5.38,4.81.29,6.44a20.71,20.71,0,0,1,5.34-.21c.06,1.2-.25,2.77.13,3.87C50.66,19,48.93,19.1,47.07,19.19Z"/><path class="cls-2" d="M56.32,28.79c-2.11,0-4,.88-3.9,2.69,0,1.64,1,3.15,2.88,3.06C59,34.35,59.23,28.82,56.32,28.79Z"/><path class="cls-2" d="M10.33,29.88A3.78,3.78,0,0,0,9.79,33c.43,1.27.91,2.58,3.32,2.36,3.11-.28,4.5-4.4,1-6.29A3.15,3.15,0,0,0,10.33,29.88Z"/><path class="cls-2" d="M28.79.5c-2.41,0-3,3.41,0,3.44S31.21.5,28.79.5Z"/><path class="cls-2" d="M21.4,9.41c-1.69,1.53-3.36,3.13-4.89,4.8-.78.85-2.09,1.93-2.27,3.1-.29,1.81,2.84,1.48,4,1.47a59.48,59.48,0,0,0,6.26-.44c1.29-.15,2.56,0,2.62-1.6.09-2.49-.31-5.82-.31-7.57S22.73,8.19,21.4,9.41Z"/><path class="cls-2" d="M42.79,8.92c.33-.1,3.75-.55,3.87-.24.61,1.5.38,4.81.29,6.44a20.71,20.71,0,0,1,5.34-.21c.06,1.2-.25,2.77.13,3.87-1.76.23-3.49.32-5.35.41-.09,1.86-.13,3.66-.28,5.47-1.24-.08-2.47.18-3.76.12-.1-2.06-.49-4.15-.4-6.2-2-.1-4.09.57-6,.33a11.94,11.94,0,0,1,0-2.39c.18-1.08-.13-.88.92-1.13,1.62-.38,3.5.08,5.18-.27C42.86,13.09,42.88,10.9,42.79,8.92Z"/><path class="cls-2" d="M13.72,26.82c2.25,0,3.2,2.36,3.71,3.28a5.22,5.22,0,0,1-.2,5.38c-2.24,3.39-7.51,2.1-9-1.2a5.34,5.34,0,0,1,.48-5.2A6.1,6.1,0,0,1,13.72,26.82Z"/><path class="cls-2" d="M55.66,26.86c-2.14,0-5.35,1.56-5.42,4.82s3.15,6.1,6.4,4.91A5.32,5.32,0,0,0,60,31.48a4.78,4.78,0,0,0-.7-2.84A4.35,4.35,0,0,0,55.66,26.86Z"/><path class="cls-2" d="M18,31.55a36.84,36.84,0,0,1,3.79,0c2.22-.06,4.06-.06,6.21,0,3.35.1,6.38-.21,9.72-.37,2.94-.13,5.58-.29,8.53-.29,1,0,3.06-.12,4-.08"/><path class="cls-2" d="M60,31c2.91-.24,5.73-.27,8.65-.6,1.78-.2,5.24-.49,5.24-.49,1.17-.33,1.24-1,1.23-2.18,0-1.69.08-3.44.08-5.17,0-3.66.4-7.31.29-11-.06-1.85.06-4.21-1.17-5.73A8.17,8.17,0,0,0,72,3.93c-1.6-.83-3.84-.67-5.6-.67-4.17,0-8.3.24-12.45.07s-8.25-.21-12.36-.22c-3.72,0-7.41.81-11.15.8A20.91,20.91,0,0,0,22.28,5.2c-1.79.75-3,2.12-4.41,3.38-1.81,1.62-2.9,3.43-4.77,5-1,.8-1.74,1.49-2.77,2.21-.56.41-3.28,1.76-3.28,1.76-2.63,1.26-5.24,2.68-6,5.72C.46,25.79-.25,29.47,2.37,31c1.35.82,3.84.79,5.39.79"/></g></g></svg>